<?xml version="1.0" encoding="utf-8" standalone="no"?>
<!DOCTYPE svg PUBLIC "-//W3C//DTD SVG 1.1//EN"
  "http://www.w3.org/Graphics/SVG/1.1/DTD/svg11.dtd">
<!-- Created with matplotlib (https://matplotlib.org/) -->
<svg height="576pt" version="1.1" viewBox="0 0 576 576" width="576pt" xmlns="http://www.w3.org/2000/svg" xmlns:xlink="http://www.w3.org/1999/xlink">
 <defs>
  <style type="text/css">
*{stroke-linecap:butt;stroke-linejoin:round;}
  </style>
 </defs>
 <g id="figure_1">
  <g id="patch_1">
   <path d="M 0 576 
L 576 576 
L 576 0 
L 0 0 
z
" style="fill:#ffffff;"/>
  </g>
  <g id="axes_1">
   <g id="patch_2">
    <path clip-path="url(#pad1d6f89c6)" d="M 535.04217 503.6 
C 535.04217 421.94465 508.996819 343.550163 462.685193 285.811111 
C 416.373568 228.07206 353.494529 195.6 288 195.6 
C 222.505471 195.6 159.626432 228.07206 113.314807 285.811111 
C 67.003181 343.550163 40.95783 421.94465 40.95783 503.6 
" style="fill:none;stroke:#0000ff;stroke-linejoin:miter;stroke-width:1.5;"/>
   </g>
   <g id="patch_3">
    <path clip-path="url(#pad1d6f89c6)" d="M 288 503.6 
C 288 462.772325 274.977325 423.575082 251.821512 394.705556 
C 228.665699 365.83603 197.22618 349.6 164.478915 349.6 
C 131.731651 349.6 100.292131 365.83603 77.136318 394.705556 
C 53.980506 423.575082 40.95783 462.772325 40.95783 503.6 
" style="fill:none;stroke:#0000ff;stroke-linejoin:miter;stroke-width:1.5;"/>
   </g>
   <g id="patch_4">
    <path clip-path="url(#pad1d6f89c6)" d="M 205.65261 503.6 
C 205.65261 476.38155 196.970826 450.250054 181.533618 431.003704 
C 166.096409 411.757353 145.13673 400.933333 123.30522 400.933333 
C 101.473711 400.933333 80.514031 411.757353 65.076822 431.003704 
C 49.639614 450.250054 40.95783 476.38155 40.95783 503.6 
" style="fill:none;stroke:#0000ff;stroke-linejoin:miter;stroke-width:1.5;"/>
   </g>
   <g id="patch_5">
    <path clip-path="url(#pad1d6f89c6)" d="M 164.478915 503.6 
C 164.478915 483.186162 157.967577 463.587541 146.389671 449.152778 
C 134.811765 434.718015 119.092005 426.6 102.718373 426.6 
C 86.34474 426.6 70.624981 434.718015 59.047074 449.152778 
C 47.469168 463.587541 40.95783 483.186162 40.95783 503.6 
" style="fill:none;stroke:#0000ff;stroke-linejoin:miter;stroke-width:1.5;"/>
   </g>
   <g id="patch_6">
    <path clip-path="url(#pad1d6f89c6)" d="M 139.774698 503.6 
C 139.774698 487.26893 134.565628 471.590033 125.303303 460.042222 
C 116.040978 448.494412 103.46517 442 90.366264 442 
C 77.267358 442 64.691551 448.494412 55.429226 460.042222 
C 46.1669 471.590033 40.95783 487.26893 40.95783 503.6 
" style="fill:none;stroke:#0000ff;stroke-linejoin:miter;stroke-width:1.5;"/>
   </g>
   <g id="patch_7">
    <path clip-path="url(#pad1d6f89c6)" d="M 164.478915 503.6 
C 164.478915 499.517232 163.176648 495.597508 160.861066 492.710556 
C 158.545485 489.823603 155.401533 488.2 152.126807 488.2 
C 148.85208 488.2 145.708128 489.823603 143.392547 492.710556 
C 141.076966 495.597508 139.774698 499.517232 139.774698 503.6 
" style="fill:none;stroke:#0000ff;stroke-linejoin:miter;stroke-width:1.5;"/>
   </g>
   <g id="patch_8">
    <path clip-path="url(#pad1d6f89c6)" d="M 164.478915 503.6 
C 164.478915 483.186162 157.967577 463.587541 146.389671 449.152778 
C 134.811765 434.718015 119.092005 426.6 102.718373 426.6 
C 86.34474 426.6 70.624981 434.718015 59.047074 449.152778 
C 47.469168 463.587541 40.95783 483.186162 40.95783 503.6 
" style="fill:none;stroke:#0000ff;stroke-linejoin:miter;stroke-width:1.5;"/>
   </g>
   <g id="patch_9">
    <path clip-path="url(#pad1d6f89c6)" d="M 205.65261 503.6 
C 205.65261 496.795387 203.482164 490.262514 199.622862 485.450926 
C 195.76356 480.639338 190.52364 477.933333 185.065763 477.933333 
C 179.607885 477.933333 174.367965 480.639338 170.508663 485.450926 
C 166.649361 490.262514 164.478915 496.795387 164.478915 503.6 
" style="fill:none;stroke:#0000ff;stroke-linejoin:miter;stroke-width:1.5;"/>
   </g>
   <g id="patch_10">
    <path clip-path="url(#pad1d6f89c6)" d="M 205.65261 503.6 
C 205.65261 476.38155 196.970826 450.250054 181.533618 431.003704 
C 166.096409 411.757353 145.13673 400.933333 123.30522 400.933333 
C 101.473711 400.933333 80.514031 411.757353 65.076822 431.003704 
C 49.639614 450.250054 40.95783 476.38155 40.95783 503.6 
" style="fill:none;stroke:#0000ff;stroke-linejoin:miter;stroke-width:1.5;"/>
   </g>
   <g id="patch_11">
    <path clip-path="url(#pad1d6f89c6)" d="M 288 503.6 
C 288 489.990775 283.659108 476.925027 275.940504 467.301852 
C 268.2219 457.678677 257.74206 452.266667 246.826305 452.266667 
C 235.91055 452.266667 225.43071 457.678677 217.712106 467.301852 
C 209.993502 476.925027 205.65261 489.990775 205.65261 503.6 
" style="fill:none;stroke:#0000ff;stroke-linejoin:miter;stroke-width:1.5;"/>
   </g>
   <g id="patch_12">
    <path clip-path="url(#pad1d6f89c6)" d="M 238.591566 503.6 
C 238.591566 498.15631 236.855209 492.930011 233.767768 489.080741 
C 230.680326 485.231471 226.48839 483.066667 222.122088 483.066667 
C 217.755786 483.066667 213.56385 485.231471 210.476409 489.080741 
C 207.388967 492.930011 205.65261 498.15631 205.65261 503.6 
" style="fill:none;stroke:#0000ff;stroke-linejoin:miter;stroke-width:1.5;"/>
   </g>
   <g id="patch_13">
    <path clip-path="url(#pad1d6f89c6)" d="M 288 503.6 
C 288 495.434465 285.395465 487.595016 280.764302 481.821111 
C 276.13314 476.047206 269.845236 472.8 263.295783 472.8 
C 256.74633 472.8 250.458426 476.047206 245.827264 481.821111 
C 241.196101 487.595016 238.591566 495.434465 238.591566 503.6 
" style="fill:none;stroke:#0000ff;stroke-linejoin:miter;stroke-width:1.5;"/>
   </g>
   <g id="patch_14">
    <path clip-path="url(#pad1d6f89c6)" d="M 288 503.6 
C 288 489.990775 283.659108 476.925027 275.940504 467.301852 
C 268.2219 457.678677 257.74206 452.266667 246.826305 452.266667 
C 235.91055 452.266667 225.43071 457.678677 217.712106 467.301852 
C 209.993502 476.925027 205.65261 489.990775 205.65261 503.6 
" style="fill:none;stroke:#0000ff;stroke-linejoin:miter;stroke-width:1.5;"/>
   </g>
   <g id="patch_15">
    <path clip-path="url(#pad1d6f89c6)" d="M 288 503.6 
C 288 462.772325 274.977325 423.575082 251.821512 394.705556 
C 228.665699 365.83603 197.22618 349.6 164.478915 349.6 
C 131.731651 349.6 100.292131 365.83603 77.136318 394.705556 
C 53.980506 423.575082 40.95783 462.772325 40.95783 503.6 
" style="fill:none;stroke:#0000ff;stroke-linejoin:miter;stroke-width:1.5;"/>
   </g>
   <g id="patch_16">
    <path clip-path="url(#pad1d6f89c6)" d="M 535.04217 503.6 
C 535.04217 462.772325 522.019494 423.575082 498.863682 394.705556 
C 475.707869 365.83603 444.268349 349.6 411.521085 349.6 
C 378.77382 349.6 347.334301 365.83603 324.178488 394.705556 
C 301.022675 423.575082 288 462.772325 288 503.6 
" style="fill:none;stroke:#0000ff;stroke-linejoin:miter;stroke-width:1.5;"/>
   </g>
   <g id="patch_17">
    <path clip-path="url(#pad1d6f89c6)" d="M 370.34739 503.6 
C 370.34739 489.990775 366.006498 476.925027 358.287894 467.301852 
C 350.56929 457.678677 340.08945 452.266667 329.173695 452.266667 
C 318.25794 452.266667 307.7781 457.678677 300.059496 467.301852 
C 292.340892 476.925027 288 489.990775 288 503.6 
" style="fill:none;stroke:#0000ff;stroke-linejoin:miter;stroke-width:1.5;"/>
   </g>
   <g id="patch_18">
    <path clip-path="url(#pad1d6f89c6)" d="M 337.408434 503.6 
C 337.408434 495.434465 334.803899 487.595016 330.172736 481.821111 
C 325.541574 476.047206 319.25367 472.8 312.704217 472.8 
C 306.154764 472.8 299.86686 476.047206 295.235698 481.821111 
C 290.604535 487.595016 288 495.434465 288 503.6 
" style="fill:none;stroke:#0000ff;stroke-linejoin:miter;stroke-width:1.5;"/>
   </g>
   <g id="patch_19">
    <path clip-path="url(#pad1d6f89c6)" d="M 370.34739 503.6 
C 370.34739 498.15631 368.611033 492.930011 365.523591 489.080741 
C 362.43615 485.231471 358.244214 483.066667 353.877912 483.066667 
C 349.51161 483.066667 345.319674 485.231471 342.232232 489.080741 
C 339.144791 492.930011 337.408434 498.15631 337.408434 503.6 
" style="fill:none;stroke:#0000ff;stroke-linejoin:miter;stroke-width:1.5;"/>
   </g>
   <g id="patch_20">
    <path clip-path="url(#pad1d6f89c6)" d="M 370.34739 503.6 
C 370.34739 489.990775 366.006498 476.925027 358.287894 467.301852 
C 350.56929 457.678677 340.08945 452.266667 329.173695 452.266667 
C 318.25794 452.266667 307.7781 457.678677 300.059496 467.301852 
C 292.340892 476.925027 288 489.990775 288 503.6 
" style="fill:none;stroke:#0000ff;stroke-linejoin:miter;stroke-width:1.5;"/>
   </g>
   <g id="patch_21">
    <path clip-path="url(#pad1d6f89c6)" d="M 535.04217 503.6 
C 535.04217 476.38155 526.360386 450.250054 510.923178 431.003704 
C 495.485969 411.757353 474.526289 400.933333 452.69478 400.933333 
C 430.86327 400.933333 409.903591 411.757353 394.466382 431.003704 
C 379.029174 450.250054 370.34739 476.38155 370.34739 503.6 
" style="fill:none;stroke:#0000ff;stroke-linejoin:miter;stroke-width:1.5;"/>
   </g>
   <g id="patch_22">
    <path clip-path="url(#pad1d6f89c6)" d="M 411.521085 503.6 
C 411.521085 496.795387 409.350639 490.262514 405.491337 485.450926 
C 401.632035 480.639338 396.392115 477.933333 390.934237 477.933333 
C 385.47636 477.933333 380.23644 480.639338 376.377138 485.450926 
C 372.517836 490.262514 370.34739 496.795387 370.34739 503.6 
" style="fill:none;stroke:#0000ff;stroke-linejoin:miter;stroke-width:1.5;"/>
   </g>
   <g id="patch_23">
    <path clip-path="url(#pad1d6f89c6)" d="M 535.04217 503.6 
C 535.04217 483.186162 528.530832 463.587541 516.952926 449.152778 
C 505.375019 434.718015 489.65526 426.6 473.281627 426.6 
C 456.907995 426.6 441.188235 434.718015 429.610329 449.152778 
C 418.032423 463.587541 411.521085 483.186162 411.521085 503.6 
" style="fill:none;stroke:#0000ff;stroke-linejoin:miter;stroke-width:1.5;"/>
   </g>
   <g id="patch_24">
    <path clip-path="url(#pad1d6f89c6)" d="M 436.225302 503.6 
C 436.225302 499.517232 434.923034 495.597508 432.607453 492.710556 
C 430.291872 489.823603 427.14792 488.2 423.873193 488.2 
C 420.598467 488.2 417.454515 489.823603 415.138934 492.710556 
C 412.823352 495.597508 411.521085 499.517232 411.521085 503.6 
" style="fill:none;stroke:#0000ff;stroke-linejoin:miter;stroke-width:1.5;"/>
   </g>
   <g id="patch_25">
    <path clip-path="url(#pad1d6f89c6)" d="M 535.04217 503.6 
C 535.04217 487.26893 529.8331 471.590033 520.570774 460.042222 
C 511.308449 448.494412 498.732642 442 485.633736 442 
C 472.53483 442 459.959022 448.494412 450.696697 460.042222 
C 441.434372 471.590033 436.225302 487.26893 436.225302 503.6 
" style="fill:none;stroke:#0000ff;stroke-linejoin:miter;stroke-width:1.5;"/>
   </g>
   <g id="patch_26">
    <path clip-path="url(#pad1d6f89c6)" d="M 535.04217 503.6 
C 535.04217 483.186162 528.530832 463.587541 516.952926 449.152778 
C 505.375019 434.718015 489.65526 426.6 473.281627 426.6 
C 456.907995 426.6 441.188235 434.718015 429.610329 449.152778 
C 418.032423 463.587541 411.521085 483.186162 411.521085 503.6 
" style="fill:none;stroke:#0000ff;stroke-linejoin:miter;stroke-width:1.5;"/>
   </g>
   <g id="patch_27">
    <path clip-path="url(#pad1d6f89c6)" d="M 535.04217 503.6 
C 535.04217 476.38155 526.360386 450.250054 510.923178 431.003704 
C 495.485969 411.757353 474.526289 400.933333 452.69478 400.933333 
C 430.86327 400.933333 409.903591 411.757353 394.466382 431.003704 
C 379.029174 450.250054 370.34739 476.38155 370.34739 503.6 
" style="fill:none;stroke:#0000ff;stroke-linejoin:miter;stroke-width:1.5;"/>
   </g>
   <g id="patch_28">
    <path clip-path="url(#pad1d6f89c6)" d="M 535.04217 503.6 
C 535.04217 462.772325 522.019494 423.575082 498.863682 394.705556 
C 475.707869 365.83603 444.268349 349.6 411.521085 349.6 
C 378.77382 349.6 347.334301 365.83603 324.178488 394.705556 
C 301.022675 423.575082 288 462.772325 288 503.6 
" style="fill:none;stroke:#0000ff;stroke-linejoin:miter;stroke-width:1.5;"/>
   </g>
   <g id="line2d_1">
    <path clip-path="url(#pad1d6f89c6)" d="M 40.95783 503.6 
L 535.04217 503.6 
" style="fill:none;stroke:#0000ff;stroke-linecap:square;stroke-width:1.5;"/>
   </g>
   <g id="text_1">
    <!-- $\frac{{0}}{{1}}$ -->
    <defs>
     <path d="M 31.78125 66.40625 
Q 24.171875 66.40625 20.328125 58.90625 
Q 16.5 51.421875 16.5 36.375 
Q 16.5 21.390625 20.328125 13.890625 
Q 24.171875 6.390625 31.78125 6.390625 
Q 39.453125 6.390625 43.28125 13.890625 
Q 47.125 21.390625 47.125 36.375 
Q 47.125 51.421875 43.28125 58.90625 
Q 39.453125 66.40625 31.78125 66.40625 
z
M 31.78125 74.21875 
Q 44.046875 74.21875 50.515625 64.515625 
Q 56.984375 54.828125 56.984375 36.375 
Q 56.984375 17.96875 50.515625 8.265625 
Q 44.046875 -1.421875 31.78125 -1.421875 
Q 19.53125 -1.421875 13.0625 8.265625 
Q 6.59375 17.96875 6.59375 36.375 
Q 6.59375 54.828125 13.0625 64.515625 
Q 19.53125 74.21875 31.78125 74.21875 
z
" id="DejaVuSans-48"/>
     <path d="M 12.40625 8.296875 
L 28.515625 8.296875 
L 28.515625 63.921875 
L 10.984375 60.40625 
L 10.984375 69.390625 
L 28.421875 72.90625 
L 38.28125 72.90625 
L 38.28125 8.296875 
L 54.390625 8.296875 
L 54.390625 0 
L 12.40625 0 
z
" id="DejaVuSans-49"/>
    </defs>
    <g transform="translate(35.15783 534.04)scale(0.2 -0.2)">
     <use transform="translate(0 45.046875)scale(0.7)" xlink:href="#DejaVuSans-48"/>
     <use transform="translate(0 -38.232812)scale(0.7)" xlink:href="#DejaVuSans-49"/>
     <path d="M 0 19.051563 
L 0 25.301563 
L 44.536133 25.301563 
L 44.536133 19.051563 
L 0 19.051563 
z
"/>
    </g>
   </g>
   <g id="text_2">
    <!-- $\frac{{1}}{{1}}$ -->
    <g transform="translate(529.24217 533.84)scale(0.2 -0.2)">
     <use transform="translate(0 43.965625)scale(0.7)" xlink:href="#DejaVuSans-49"/>
     <use transform="translate(0 -38.31875)scale(0.7)" xlink:href="#DejaVuSans-49"/>
     <path d="M 0 18.965625 
L 0 25.215625 
L 44.536133 25.215625 
L 44.536133 18.965625 
L 0 18.965625 
z
"/>
    </g>
   </g>
   <g id="text_3">
    <!-- $\frac{{1}}{{2}}$ -->
    <defs>
     <path d="M 19.1875 8.296875 
L 53.609375 8.296875 
L 53.609375 0 
L 7.328125 0 
L 7.328125 8.296875 
Q 12.9375 14.109375 22.625 23.890625 
Q 32.328125 33.6875 34.8125 36.53125 
Q 39.546875 41.84375 41.421875 45.53125 
Q 43.3125 49.21875 43.3125 52.78125 
Q 43.3125 58.59375 39.234375 62.25 
Q 35.15625 65.921875 28.609375 65.921875 
Q 23.96875 65.921875 18.8125 64.3125 
Q 13.671875 62.703125 7.8125 59.421875 
L 7.8125 69.390625 
Q 13.765625 71.78125 18.9375 73 
Q 24.125 74.21875 28.421875 74.21875 
Q 39.75 74.21875 46.484375 68.546875 
Q 53.21875 62.890625 53.21875 53.421875 
Q 53.21875 48.921875 51.53125 44.890625 
Q 49.859375 40.875 45.40625 35.40625 
Q 44.1875 33.984375 37.640625 27.21875 
Q 31.109375 20.453125 19.1875 8.296875 
z
" id="DejaVuSans-50"/>
    </defs>
    <g transform="translate(282.2 533.74)scale(0.2 -0.2)">
     <use transform="translate(0 43.965625)scale(0.7)" xlink:href="#DejaVuSans-49"/>
     <use transform="translate(0 -39.2375)scale(0.7)" xlink:href="#DejaVuSans-50"/>
     <path d="M 0 18.965625 
L 0 25.215625 
L 44.536133 25.215625 
L 44.536133 18.965625 
L 0 18.965625 
z
"/>
    </g>
   </g>
   <g id="text_4">
    <!-- $\frac{{1}}{{3}}$ -->
    <defs>
     <path d="M 40.578125 39.3125 
Q 47.65625 37.796875 51.625 33 
Q 55.609375 28.21875 55.609375 21.1875 
Q 55.609375 10.40625 48.1875 4.484375 
Q 40.765625 -1.421875 27.09375 -1.421875 
Q 22.515625 -1.421875 17.65625 -0.515625 
Q 12.796875 0.390625 7.625 2.203125 
L 7.625 11.71875 
Q 11.71875 9.328125 16.59375 8.109375 
Q 21.484375 6.890625 26.8125 6.890625 
Q 36.078125 6.890625 40.9375 10.546875 
Q 45.796875 14.203125 45.796875 21.1875 
Q 45.796875 27.640625 41.28125 31.265625 
Q 36.765625 34.90625 28.71875 34.90625 
L 20.21875 34.90625 
L 20.21875 43.015625 
L 29.109375 43.015625 
Q 36.375 43.015625 40.234375 45.921875 
Q 44.09375 48.828125 44.09375 54.296875 
Q 44.09375 59.90625 40.109375 62.90625 
Q 36.140625 65.921875 28.71875 65.921875 
Q 24.65625 65.921875 20.015625 65.03125 
Q 15.375 64.15625 9.8125 62.3125 
L 9.8125 71.09375 
Q 15.4375 72.65625 20.34375 73.4375 
Q 25.25 74.21875 29.59375 74.21875 
Q 40.828125 74.21875 47.359375 69.109375 
Q 53.90625 64.015625 53.90625 55.328125 
Q 53.90625 49.265625 50.4375 45.09375 
Q 46.96875 40.921875 40.578125 39.3125 
z
" id="DejaVuSans-51"/>
    </defs>
    <g transform="translate(199.85261 533.64)scale(0.2 -0.2)">
     <use transform="translate(0 43.965625)scale(0.7)" xlink:href="#DejaVuSans-49"/>
     <use transform="translate(0 -39.2375)scale(0.7)" xlink:href="#DejaVuSans-51"/>
     <path d="M 0 18.965625 
L 0 25.215625 
L 44.536133 25.215625 
L 44.536133 18.965625 
L 0 18.965625 
z
"/>
    </g>
   </g>
   <g id="text_5">
    <!-- $\frac{{1}}{{4}}$ -->
    <defs>
     <path d="M 37.796875 64.3125 
L 12.890625 25.390625 
L 37.796875 25.390625 
z
M 35.203125 72.90625 
L 47.609375 72.90625 
L 47.609375 25.390625 
L 58.015625 25.390625 
L 58.015625 17.1875 
L 47.609375 17.1875 
L 47.609375 0 
L 37.796875 0 
L 37.796875 17.1875 
L 4.890625 17.1875 
L 4.890625 26.703125 
z
" id="DejaVuSans-52"/>
    </defs>
    <g transform="translate(158.678915 533.84)scale(0.2 -0.2)">
     <use transform="translate(0 43.965625)scale(0.7)" xlink:href="#DejaVuSans-49"/>
     <use transform="translate(0 -38.31875)scale(0.7)" xlink:href="#DejaVuSans-52"/>
     <path d="M 0 18.965625 
L 0 25.215625 
L 44.536133 25.215625 
L 44.536133 18.965625 
L 0 18.965625 
z
"/>
    </g>
   </g>
   <g id="text_6">
    <!-- $\frac{{1}}{{5}}$ -->
    <defs>
     <path d="M 10.796875 72.90625 
L 49.515625 72.90625 
L 49.515625 64.59375 
L 19.828125 64.59375 
L 19.828125 46.734375 
Q 21.96875 47.46875 24.109375 47.828125 
Q 26.265625 48.1875 28.421875 48.1875 
Q 40.625 48.1875 47.75 41.5 
Q 54.890625 34.8125 54.890625 23.390625 
Q 54.890625 11.625 47.5625 5.09375 
Q 40.234375 -1.421875 26.90625 -1.421875 
Q 22.3125 -1.421875 17.546875 -0.640625 
Q 12.796875 0.140625 7.71875 1.703125 
L 7.71875 11.625 
Q 12.109375 9.234375 16.796875 8.0625 
Q 21.484375 6.890625 26.703125 6.890625 
Q 35.15625 6.890625 40.078125 11.328125 
Q 45.015625 15.765625 45.015625 23.390625 
Q 45.015625 31 40.078125 35.4375 
Q 35.15625 39.890625 26.703125 39.890625 
Q 22.75 39.890625 18.8125 39.015625 
Q 14.890625 38.140625 10.796875 36.28125 
z
" id="DejaVuSans-53"/>
    </defs>
    <g transform="translate(133.974698 533.74)scale(0.2 -0.2)">
     <use transform="translate(0 43.965625)scale(0.7)" xlink:href="#DejaVuSans-49"/>
     <use transform="translate(0 -38.31875)scale(0.7)" xlink:href="#DejaVuSans-53"/>
     <path d="M 0 18.965625 
L 0 25.215625 
L 44.536133 25.215625 
L 44.536133 18.965625 
L 0 18.965625 
z
"/>
    </g>
   </g>
   <g id="text_7">
    <!-- $\frac{{2}}{{5}}$ -->
    <g transform="translate(232.791566 533.84)scale(0.2 -0.2)">
     <use transform="translate(0 44.046875)scale(0.7)" xlink:href="#DejaVuSans-50"/>
     <use transform="translate(0 -38.2375)scale(0.7)" xlink:href="#DejaVuSans-53"/>
     <path d="M 0 19.046875 
L 0 25.296875 
L 44.536133 25.296875 
L 44.536133 19.046875 
L 0 19.046875 
z
"/>
    </g>
   </g>
   <g id="text_8">
    <!-- $\frac{{2}}{{3}}$ -->
    <g transform="translate(364.54739 533.74)scale(0.2 -0.2)">
     <use transform="translate(0 44.046875)scale(0.7)" xlink:href="#DejaVuSans-50"/>
     <use transform="translate(0 -39.15625)scale(0.7)" xlink:href="#DejaVuSans-51"/>
     <path d="M 0 19.046875 
L 0 25.296875 
L 44.536133 25.296875 
L 44.536133 19.046875 
L 0 19.046875 
z
"/>
    </g>
   </g>
   <g id="text_9">
    <!-- $\frac{{3}}{{5}}$ -->
    <g transform="translate(331.608434 533.94)scale(0.2 -0.2)">
     <use transform="translate(0 45.046875)scale(0.7)" xlink:href="#DejaVuSans-51"/>
     <use transform="translate(0 -38.232812)scale(0.7)" xlink:href="#DejaVuSans-53"/>
     <path d="M 0 19.051563 
L 0 25.301563 
L 44.536133 25.301563 
L 44.536133 19.051563 
L 0 19.051563 
z
"/>
    </g>
   </g>
   <g id="text_10">
    <!-- $\frac{{3}}{{4}}$ -->
    <g transform="translate(405.721085 534.04)scale(0.2 -0.2)">
     <use transform="translate(0 45.046875)scale(0.7)" xlink:href="#DejaVuSans-51"/>
     <use transform="translate(0 -38.232812)scale(0.7)" xlink:href="#DejaVuSans-52"/>
     <path d="M 0 19.051563 
L 0 25.301563 
L 44.536133 25.301563 
L 44.536133 19.051563 
L 0 19.051563 
z
"/>
    </g>
   </g>
   <g id="text_11">
    <!-- $\frac{{4}}{{5}}$ -->
    <g transform="translate(430.425302 533.74)scale(0.2 -0.2)">
     <use transform="translate(0 43.965625)scale(0.7)" xlink:href="#DejaVuSans-52"/>
     <use transform="translate(0 -38.31875)scale(0.7)" xlink:href="#DejaVuSans-53"/>
     <path d="M 0 18.965625 
L 0 25.215625 
L 44.536133 25.215625 
L 44.536133 18.965625 
L 0 18.965625 
z
"/>
    </g>
   </g>
  </g>
 </g>
 <defs>
  <clipPath id="pad1d6f89c6">
   <rect height="554.4" width="543.492773" x="16.253613" y="10.8"/>
  </clipPath>
 </defs>
</svg>
